<?xml version="1.0" ?><svg style="enable-background:new 0 0 64 64;" version="1.1" viewBox="0 0 64 64" xml:space="preserve" xmlns="http://www.w3.org/2000/svg" xmlns:xlink="http://www.w3.org/1999/xlink"><style type="text/css">
	.st0{fill:#0072FF;}
</style><g id="GUIDES_64"/><g id="Layer_3"/><g id="Layer_2"><path class="st0" d="M54,21.1C53.5,13.7,47,8,39.6,8h-1.3C36.9,8,36,7.1,36,6c0-1.1-0.9-2-2-2h-2c-1.1,0-2,0.9-2,2c0,1.1-0.9,2-2,2   h-2c-1.1,0-2-0.9-2-2c0-1.1-0.9-2-2-2h-2c-1.1,0-2,0.9-2,2c0,1.1-0.9,2-2,2h-4c-1.1,0-2,0.9-2,2v4c0,1.1,0.9,2,2,2s2,0.9,2,2v28   c0,1.1-0.9,2-2,2s-2,0.9-2,2v4c0,1.1,0.9,2,2,2h4c1.1,0,2,0.9,2,2c0,1.1,0.9,2,2,2h2c1.1,0,2-0.9,2-2c0-1.1,0.9-2,2-2h2   c1.1,0,2,0.9,2,2c0,1.1,0.9,2,2,2h2c1.1,0,2-0.9,2-2s0.9-2,2-2h1.6c7.5,0,14-5.7,14.4-13.1c0.2-3.6-0.9-6.9-2.9-9.5   c-0.7-0.8-0.7-2,0-2.8C53.1,28,54.2,24.7,54,21.1z M46,42.8c-0.4,3-3.1,5.2-6.2,5.2H25.9c-1,0-1.9-0.8-1.9-1.9v-8.2   c0-1,0.8-1.9,1.9-1.9H40C43.6,36,46.4,39.1,46,42.8z M46,22.8c-0.4,3-3.1,5.2-6.2,5.2H25.9c-1,0-1.9-0.8-1.9-1.9v-8.2   c0-1,0.8-1.9,1.9-1.9H40C43.6,16,46.4,19.1,46,22.8z"/></g></svg>