<?xml version="1.0" encoding="iso-8859-1"?>
<!-- Generator: Adobe Illustrator 19.0.0, SVG Export Plug-In . SVG Version: 6.00 Build 0)  -->
<svg version="1.1" id="Capa_1" xmlns="http://www.w3.org/2000/svg" xmlns:xlink="http://www.w3.org/1999/xlink" x="0px" y="0px"
	 viewBox="0 0 512 512" style="enable-background:new 0 0 512 512;" xml:space="preserve">
<path style="fill:#BBA025;" d="M512,256c0,141.385-114.615,256-256,256c-60.103,0-115.367-20.71-159.044-55.39
	c-11.985-9.509-23.082-20.062-33.186-31.535C24.074,379.988,0,320.794,0,256S24.074,132.012,63.77,86.925
	C73.874,75.452,84.971,64.899,96.956,55.39C140.633,20.71,195.897,0,256,0C397.385,0,512,114.615,512,256z"/>
<path style="fill:#F0EFEB;" d="M307.137,55.39H63.77v98.659h52.621V357.95H63.77v67.124c10.104,11.473,21.201,22.026,33.186,31.535
	h210.181c41.106,0,157.853-26.311,157.853-200.61S348.244,55.39,307.137,55.39z M277.535,357.951h-44.398V154.049h44.398
	c11.515,0,60.844,23.019,60.844,101.951S289.05,357.951,277.535,357.951z"/>
<g>
</g>
<g>
</g>
<g>
</g>
<g>
</g>
<g>
</g>
<g>
</g>
<g>
</g>
<g>
</g>
<g>
</g>
<g>
</g>
<g>
</g>
<g>
</g>
<g>
</g>
<g>
</g>
<g>
</g>
</svg>
