<?xml version="1.0" ?><svg height="256" viewBox="0 0 256 256" width="256" xmlns="http://www.w3.org/2000/svg"><defs><style>
      .cls-1 {
        fill: #364583;
      }

      .cls-2 {
        fill: #fff;
        fill-rule: evenodd;
      }
    </style></defs><g data-name="eos eoscoin coin " id="eos_eoscoin_coin_"><g data-name="eos eos" id="eos_eos"><circle class="cls-1" cx="128" cy="128" data-name="Эллипс 8" id="Эллипс_8" r="128"/><path class="cls-2" d="M861,662l-41,56-22,90,62,39,62-39-20-90Zm-2,8-35,49,9,30,26-44V670Zm4,0v35l26,44,9-30Zm-2,38-27,45,17,52h19l18-52Zm39,18-8,26,24,44Zm-70,26-8-27-17,70Zm2,3-29,50h44Zm42,50h43l-27-50Zm-67,4h41l10,32Zm45,0,8,28,9-28H852Zm21,0-11,32,52-32H873Z" data-name="Фигура 2" id="Фигура_2" transform="translate(-728 -629)"/></g></g></svg>