<?xml version="1.0" ?><svg height="156px" version="1.1" viewBox="0 0 256 156" width="256px" xmlns="http://www.w3.org/2000/svg" xmlns:xlink="http://www.w3.org/1999/xlink"><title/><desc/><defs/><g fill="none" fill-rule="evenodd" id="Classic" stroke="none" stroke-width="1"><g fill="#00CBA0" id="Siacoin" transform="translate(-906.000000, -4013.000000)"><g transform="translate(906.000000, 4013.000000)"><path d="M101.63305,61.67985 L101.63305,141.43785 C101.63305,148.13285 107.05855,153.55485 113.75005,153.55485 C120.44555,153.55485 125.86705,148.13285 125.86705,141.43785 L125.86705,61.68385 C125.78905,55.08585 120.37505,49.80485 113.78105,49.88685 C107.12905,49.80485 101.71505,55.08585 101.63305,61.67985 Z" id="Fill-1"/><path d="M4.4531,142.26965 C1.6406,140.17215 -0.0119,136.87115 0.0001,133.35965 C0.0001,127.33215 4.8826,122.44165 10.9141,122.44165 L11.1131,122.44165 C13.5506,122.41815 15.9376,123.17215 17.9181,124.59765 C25.7736,130.80865 35.4646,134.24615 45.4806,134.38665 C55.2736,134.38665 61.0506,130.51965 61.0506,124.25415 L61.0506,123.96115 C61.0506,117.93765 57.3321,114.85565 39.3126,110.25415 C17.5741,104.72265 3.5741,98.69915 3.5741,77.30465 L3.5741,77.01165 C3.5741,57.42965 19.2891,44.50415 41.3201,44.50415 C53.4256,44.30465 65.3321,47.62515 75.5896,54.05115 C78.8791,56.03115 80.8751,59.60965 80.8281,63.44915 C80.8281,69.48065 75.9416,74.36715 69.9141,74.37115 C69.8476,74.37115 69.7811,74.36715 69.7146,74.36715 C67.5861,74.37115 65.5001,73.77365 63.6951,72.65265 C56.9256,68.24615 49.0976,65.74215 41.0271,65.40615 C31.9221,65.40615 27.1721,69.57065 27.1721,74.80865 L27.1721,75.10165 C27.1721,82.19915 31.7736,84.50015 50.4256,89.25015 C72.3126,94.92965 84.6951,102.81265 84.6951,121.56265 L84.6951,121.85565 C84.6951,143.25415 68.3436,155.29715 45.0896,155.29715 C30.5626,155.32065 16.3866,150.80065 4.5546,142.37115" id="Fill-3"/><path d="M230.4414,88.71105 C231.1954,91.92605 231.6564,95.20305 231.8124,98.50005 L231.8124,121.02355 C231.9494,126.43005 227.6759,130.92205 222.2694,131.05855 C222.1054,131.06255 221.9414,131.06255 221.7774,131.05855 L199.8904,131.05855 C196.4219,131.00405 192.9689,130.54305 189.6094,129.68755 C184.1599,128.16005 179.1994,125.23855 175.2149,121.21905 C162.5079,108.11755 162.8244,87.19955 175.9219,74.48855 C188.7499,62.04305 209.1524,62.05455 221.9689,74.51205 C226.1444,78.38305 229.1054,83.38305 230.4884,88.90655 L230.4414,88.71105 Z M176.4884,49.10555 C167.2849,53.25805 156.4959,51.58605 148.9764,44.84405 L147.9494,43.86355 L127.6289,23.54705 C125.4179,21.08205 124.3674,17.78505 124.7424,14.48855 C124.8084,13.77355 124.8084,13.05505 124.7424,12.33605 C124.7889,5.84405 119.5704,0.54705 113.0779,0.50005 C106.5899,0.45305 101.2929,5.67205 101.2424,12.16405 C101.1954,18.65255 106.4179,23.95305 112.9064,24.00005 C113.6759,24.00405 114.4414,23.93355 115.1954,23.79305 C118.4959,23.40255 121.8084,24.43355 124.3009,26.63305 L144.7654,47.09755 L145.5509,47.97655 C152.3009,55.51205 153.9689,66.32055 149.8084,75.53905 C139.8124,96.73055 144.1759,121.91405 160.7264,138.50005 C170.0819,147.82455 182.3869,153.60155 195.5349,154.85155 C198.8164,155.14455 245.5704,154.85155 245.5704,154.85155 C248.1914,154.76555 250.6799,153.67955 252.5234,151.81655 C254.4649,149.90255 255.6329,147.33605 255.8009,144.61755 L255.8009,99.33205 C255.7344,97.33205 255.5549,95.33605 255.2654,93.35555 C254.1249,80.61755 248.4454,68.71505 239.2539,59.82055 C236.2929,56.88305 233.0079,54.28505 229.4649,52.08605 C213.6639,42.25005 193.6174,41.04705 176.4884,49.10555 Z" id="Fill-6"/></g></g></g></svg>