<?xml version="1.0" ?><!DOCTYPE svg  PUBLIC '-//W3C//DTD SVG 1.1//EN'  'http://www.w3.org/Graphics/SVG/1.1/DTD/svg11.dtd'><svg height="512px" style="enable-background:new 0 0 512 512;" version="1.1" viewBox="0 0 512 512" width="512px" xml:space="preserve" xmlns="http://www.w3.org/2000/svg" xmlns:xlink="http://www.w3.org/1999/xlink"><g id="_x33_21-Steem"><g><path d="M247.155,26.001c-1.407,11.841-2.088,21.896-3.527,31.601    c-4.633,33.371-1.436,65.318,13.503,96.237c20.287,41.252,39.466,82.93,58.646,124.588c11.757,25.477,22.416,51.693,28.094,79.382    c2.481,13.267,1.423,25.458-4.983,37.338c-19.182,33.729-44.087,62.1-73.946,86.538c-2.84,2.146-6.73,2.841-9.97,4.314    c0-3.65-0.327-7.568,0.403-10.8c3.894-15.79,8.874-31.598,12.427-47.744c4.615-20.505,2.481-40.957-6.054-60.346    c-15.65-34.819-31.983-69.649-47.987-104.492c-15.292-33.042-30.938-65.715-40.554-100.892c-4.98-18.298-8.523-36.991,0-54.942    c15.303-31.963,38.753-56.752,67.224-77.216C241.481,28.158,243.266,27.808,247.155,26.001L247.155,26.001z" style="fill:#4AA1F1;"/><path d="M103.2,75.527c0,3.624,0.364,6.131,0,8.292c-2.847,20.444-5.328,40.912-1.446,61.407    c1.811,8.612,4.64,17.208,8.191,25.452c15.987,34.846,32.721,68.962,48.021,103.783c8.522,19.783,14.899,40.563,21.676,61.393    c3.185,9.728,1.394,19.783-3.587,29.097c-14.884,26.563-34.833,48.878-58.309,68.23c-2.142,1.776-4.982,2.865-7.465,4.295    c-0.708-0.363-1.035-0.708-1.743-1.07c0.364-3.225,0.709-6.418,1.41-9.323c3.222-12.588,6.769-25.148,9.599-37.709    c3.207-15.835,1.79-31.23-4.641-45.978c-14.554-31.953-29.144-63.554-43.687-95.166c-11.415-24.739-22.421-49.172-28.451-75.388    c-3.597-15.438-1.102-29.421,6.726-42.715c12.108-20.131,27.762-36.627,46.229-50.632C97.523,78.429,100.016,77.341,103.2,75.527    L103.2,75.527z" style="fill:#1A5099;"/><path d="M394.352,76.969c-0.696,6.106-1.419,12.597-2.163,18.682c-2.47,17.963-3.878,36.642,1.104,54.208    c3.889,13.679,9.971,26.97,15.647,39.856c16.697,37.326,34.471,74.339,50.47,111.668c5.332,12.576,8.526,26.228,11.02,39.861    c1.102,6.496,0,14.394-3.194,20.474c-14.198,28.725-35.574,51.716-60.443,71.819c-1.776,1.448-4.271,2.165-8.185,4.32    c0.708-4.682,0.708-7.539,1.427-10.402c3.564-15.093,7.479-29.807,10.66-44.911c2.878-13.991,0-27.661-6.037-40.541    c-14.561-31.968-29.505-63.923-44.099-95.888c-11.007-24.044-22.038-48.507-27.713-74.675    c-3.184-15.453-0.688-29.098,7.499-42.368c11.681-19.783,27.331-35.945,45.476-49.573c2.138-1.463,4.271-2.53,6.363-3.598    C393.294,76.632,393.657,76.969,394.352,76.969L394.352,76.969z" style="fill:#1A5099;"/></g></g><g id="Layer_1"/></svg>