<?xml version="1.0" ?><svg viewBox="0 0 96 96" xmlns="http://www.w3.org/2000/svg"><defs><style>.cls-1{fill:#2ad3c0;}</style></defs><title/><g data-name="Your Icons" id="Your_Icons"><path class="cls-1" d="M47.5,92.41A44.41,44.41,0,1,1,91.91,48,44.46,44.46,0,0,1,47.5,92.41Zm0-86.82A42.41,42.41,0,1,0,89.91,48,42.46,42.46,0,0,0,47.5,5.59Z"/><path class="cls-1" d="M27.6,47.67V43.61l21,13.29L72.37,41.57,48.81,25.76,26.41,40.49l-3.32-1.87v2.14l2.51,1.59.46,6.42L48.57,63.46l21-13.22v4.61l-20.74,13L26.06,53.12v2.3L48.79,70.24,71.55,56V46.61l-23,14.48ZM48.8,28.16,68.73,41.54l-20.16,13L28.26,41.66Z"/></g></svg>